
<?xml version="1.0" encoding="utf-8"?><svg version="1.1" id="Layer_1" xmlns="http://www.w3.org/2000/svg" xmlns:xlink="http://www.w3.org/1999/xlink" x="0px" y="0px" viewBox="0 0 122.88 122.88" style="enable-background:new 0 0 122.88 122.88" xml:space="preserve"><g><path d="M0,61.44C0,44.47,6.88,29.11,18,18C29.11,6.88,44.47,0,61.44,0c16.97,0,32.33,6.88,43.44,18c11.12,11.12,18,26.48,18,43.44 c0,16.97-6.88,32.33-18,43.44c-11.12,11.12-26.48,18-43.44,18c-16.97,0-32.33-6.88-43.44-18C6.88,93.77,0,78.41,0,61.44L0,61.44z M39.47,80.58V66.99h43.95l0,13.59H39.47L39.47,80.58L39.47,80.58z M39.47,55.89V42.3h43.95l0,13.59H39.47L39.47,55.89L39.47,55.89 z M25.46,25.46c-9.21,9.21-14.9,21.93-14.9,35.98c0,14.05,5.7,26.78,14.9,35.98c9.21,9.21,21.93,14.9,35.98,14.9 c14.05,0,26.78-5.7,35.98-14.9c9.21-9.21,14.9-21.93,14.9-35.98c0-14.05-5.7-26.78-14.9-35.98c-9.21-9.21-21.93-14.9-35.98-14.9 C47.39,10.55,34.66,16.25,25.46,25.46L25.46,25.46z"/></g></svg>